<svg width="24" height="24" viewBox="0 0 24 24" fill="none" xmlns="http://www.w3.org/2000/svg">
<g clip-path="url(#clip0_48_33)">
<path d="M12 24C18.6274 24 24 18.6274 24 12C24 5.37258 18.6274 0 12 0C5.37258 0 0 5.37258 0 12C0 18.6274 5.37258 24 12 24Z" fill="white"/>
<path d="M12 22C17.5228 22 22 17.5228 22 12C22 6.47715 17.5228 2 12 2C6.47715 2 2 6.47715 2 12C2 17.5228 6.47715 22 12 22Z" fill="#D32F2F"/>
<path d="M7.2 16.8L16.8 7.20001Z" fill="black"/>
<path d="M7.2 16.8L16.8 7.20001" stroke="white" stroke-width="2.5" stroke-linecap="round"/>
<path d="M16.8 16.8L7.2 7.20001Z" fill="black"/>
<path d="M16.8 16.8L7.2 7.20001" stroke="white" stroke-width="2.5" stroke-linecap="round"/>
</g>
<defs>
<clipPath id="clip0_48_33">
<rect width="24" height="24" fill="white"/>
</clipPath>
</defs>
</svg>
