<svg width="24" height="24" viewBox="0 0 24 24" fill="none" xmlns="http://www.w3.org/2000/svg">
<path d="M9 17C13.4183 17 17 13.4183 17 9C17 4.58172 13.4183 1 9 1C4.58172 1 1 4.58172 1 9C1 13.4183 4.58172 17 9 17Z" fill="white"/>
<path d="M9 15C12.3137 15 15 12.3137 15 9C15 5.68629 12.3137 3 9 3C5.68629 3 3 5.68629 3 9C3 12.3137 5.68629 15 9 15Z" fill="#5D4037"/>
<path d="M9 2.33337C5.31334 2.33337 2.33334 5.33337 2.33334 9.00004C2.33334 10.7682 3.03572 12.4638 4.28596 13.7141C4.90502 14.3331 5.63994 14.8242 6.44878 15.1592C7.25762 15.4943 8.12453 15.6667 9 15.6667C10.7681 15.6667 12.4638 14.9643 13.714 13.7141C14.9643 12.4638 15.6667 10.7682 15.6667 9.00004C15.6667 8.12456 15.4942 7.25765 15.1592 6.44882C14.8242 5.63998 14.3331 4.90505 13.714 4.286C13.095 3.66694 12.3601 3.17588 11.5512 2.84084C10.7424 2.50581 9.87548 2.33337 9 2.33337ZM11.3333 6.33337C11.5986 6.33337 11.8529 6.43873 12.0404 6.62627C12.228 6.8138 12.3333 7.06816 12.3333 7.33337C12.3333 7.59859 12.228 7.85294 12.0404 8.04048C11.8529 8.22802 11.5986 8.33337 11.3333 8.33337C11.0681 8.33337 10.8138 8.22802 10.6262 8.04048C10.4387 7.85294 10.3333 7.59859 10.3333 7.33337C10.3333 7.06816 10.4387 6.8138 10.6262 6.62627C10.8138 6.43873 11.0681 6.33337 11.3333 6.33337ZM6.66667 6.33337C6.93189 6.33337 7.18624 6.43873 7.37378 6.62627C7.56131 6.8138 7.66667 7.06816 7.66667 7.33337C7.66667 7.59859 7.56131 7.85294 7.37378 8.04048C7.18624 8.22802 6.93189 8.33337 6.66667 8.33337C6.40145 8.33337 6.1471 8.22802 5.95956 8.04048C5.77203 7.85294 5.66667 7.59859 5.66667 7.33337C5.66667 7.06816 5.77203 6.8138 5.95956 6.62627C6.1471 6.43873 6.40145 6.33337 6.66667 6.33337ZM9 12.6667C7.44667 12.6667 6.12667 11.6934 5.59334 10.3334C5.59334 10.3334 7.64438 10.6667 9 10.6667C10.3556 10.6667 12.4067 10.3334 12.4067 10.3334C11.8667 11.6934 10.5533 12.6667 9 12.6667Z" fill="#FDD835"/>
<path d="M16.5 23C20.0899 23 23 20.0899 23 16.5C23 12.9101 20.0899 10 16.5 10C12.9101 10 10 12.9101 10 16.5C10 20.0899 12.9101 23 16.5 23Z" fill="white"/>
<path d="M16.5 21.9167C19.4915 21.9167 21.9167 19.4916 21.9167 16.5C21.9167 13.5085 19.4915 11.0834 16.5 11.0834C13.5085 11.0834 11.0833 13.5085 11.0833 16.5C11.0833 19.4916 13.5085 21.9167 16.5 21.9167Z" fill="#D32F2F"/>
<path d="M18.8698 18.8698H14.6302C14.3541 18.8698 14.1302 18.6459 14.1302 18.3698V15.6458C14.1302 15.3696 14.3541 15.1458 14.6302 15.1458H18.8698M17.8542 12.776V12.9531C17.8542 13.2292 17.6303 13.4531 17.3542 13.4531H15.4844C15.2974 13.4531 15.1458 13.3015 15.1458 13.1145V13.1145C15.1458 12.9276 14.9943 12.776 14.8073 12.776V12.776C14.6203 12.776 14.4687 12.9276 14.4687 13.1145V13.1145C14.4687 13.3015 14.3172 13.4531 14.1302 13.4531V13.4531C13.7544 13.4531 13.4531 13.7544 13.4531 14.1302V18.8698C13.4531 19.0493 13.5245 19.2215 13.6514 19.3485C13.7784 19.4755 13.9506 19.5468 14.1302 19.5468H18.8698C19.0494 19.5468 19.2216 19.4755 19.3486 19.3485C19.4755 19.2215 19.5469 19.0493 19.5469 18.8698V14.1302C19.5469 13.7544 19.2422 13.4531 18.8698 13.4531V13.4531C18.6828 13.4531 18.5312 13.3015 18.5312 13.1145V12.776M18.1927 17C18.1927 16.7238 17.9689 16.5 17.6927 16.5H17C16.7239 16.5 16.5 16.7238 16.5 17V17.6927C16.5 17.9688 16.7239 18.1927 17 18.1927H17.6927C17.9689 18.1927 18.1927 17.9688 18.1927 17.6927V17Z" fill="white"/>
</svg>
