<svg width="24" height="24" viewBox="0 0 24 24" fill="none" xmlns="http://www.w3.org/2000/svg">
<g clip-path="url(#clip0_48_50)">
<path d="M12 24C18.6274 24 24 18.6274 24 12C24 5.37258 18.6274 0 12 0C5.37258 0 0 5.37258 0 12C0 18.6274 5.37258 24 12 24Z" fill="white"/>
<path d="M12 22C17.5228 22 22 17.5228 22 12C22 6.47715 17.5228 2 12 2C6.47715 2 2 6.47715 2 12C2 17.5228 6.47715 22 12 22Z" fill="#448AFF"/>
<path d="M8.49999 8C7.69999 8 6.99999 8.7 6.99999 9.5C6.99999 10.3 7.69999 11 8.49999 11C9.29999 11 9.99999 10.3 9.99999 9.5C9.99999 8.7 9.29999 8 8.49999 8ZM15.5 8C14.7 8 14 8.7 14 9.5C14 10.3 14.7 11 15.5 11C16.3 11 17 10.3 17 9.5C17 8.7 16.3 8 15.5 8ZM12 14C9.94759 14.0454 7.85029 15.1601 6.89059 17.5C6.89059 17.5 9.99512 17 12 17C14.005 17 17.1096 17.5 17.1096 17.5C16.1299 15.0147 13.75 14 12 14Z" fill="#1A237E"/>
</g>
<defs>
<clipPath id="clip0_48_50">
<rect width="24" height="24" fill="white"/>
</clipPath>
</defs>
</svg>
