<svg width="24" height="24" viewBox="0 0 24 24" fill="none" xmlns="http://www.w3.org/2000/svg">
<g clip-path="url(#clip0_48_66)">
<path d="M12 24C18.6274 24 24 18.6274 24 12C24 5.37258 18.6274 0 12 0C5.37258 0 0 5.37258 0 12C0 18.6274 5.37258 24 12 24Z" fill="white"/>
<path d="M12 22C17.5228 22 22 17.5228 22 12C22 6.47715 17.5228 2 12 2C6.47715 2 2 6.47715 2 12C2 17.5228 6.47715 22 12 22Z" fill="#00AF12"/>
<mask id="mask0_48_66" style="mask-type:alpha" maskUnits="userSpaceOnUse" x="4" y="5" width="16" height="14">
<rect x="4" y="5" width="16" height="14" fill="#D9D9D9"/>
</mask>
<g mask="url(#mask0_48_66)">
<path d="M9.18904 14.5819C9.5879 15.0437 10.3039 15.0437 10.7027 14.5819L17.4719 6.74342C17.6696 6.51449 17.9082 6.40002 18.1877 6.40002C18.4672 6.40002 18.7058 6.51449 18.9035 6.74342C19.1012 6.97235 19.2 7.24863 19.2 7.57226C19.2 7.89592 19.1012 8.1722 18.9035 8.40111L10.6617 17.9448C10.4571 18.1816 10.2186 18.3 9.94588 18.3C9.6732 18.3 9.43461 18.1816 9.2301 17.9448L5.89655 14.0847C5.69885 13.8558 5.6 13.5795 5.6 13.2558C5.6 12.9322 5.69885 12.6559 5.89655 12.427C6.09423 12.1981 6.33283 12.0836 6.61233 12.0836C6.89184 12.0836 7.13043 12.1981 7.32811 12.427L9.18904 14.5819Z" fill="white"/>
</g>
</g>
<defs>
<clipPath id="clip0_48_66">
<rect width="24" height="24" fill="white"/>
</clipPath>
</defs>
</svg>
