<svg width="24" height="24" viewBox="0 0 24 24" fill="none" xmlns="http://www.w3.org/2000/svg">
<g clip-path="url(#clip0_48_38)">
<path d="M12 24C18.6274 24 24 18.6274 24 12C24 5.37258 18.6274 0 12 0C5.37258 0 0 5.37258 0 12C0 18.6274 5.37258 24 12 24Z" fill="white"/>
<path d="M12 22C17.5228 22 22 17.5228 22 12C22 6.47715 17.5228 2 12 2C6.47715 2 2 6.47715 2 12C2 17.5228 6.47715 22 12 22Z" fill="#4E342E"/>
<path d="M13.48 10.6H16.615L13.48 7.02499V10.6ZM8.35001 6.04999H14.05L17.47 9.94999V16.45C17.47 16.7948 17.3499 17.1254 17.1361 17.3692C16.9223 17.613 16.6324 17.75 16.33 17.75H8.35001C7.71731 17.75 7.21001 17.165 7.21001 16.45V7.34999C7.21001 6.62849 7.71731 6.04999 8.35001 6.04999ZM8.35001 11.9V13.2H16.33V11.9H8.35001ZM8.35001 14.5V15.8H13.48V14.5H8.35001Z" fill="white"/>
</g>
<defs>
<clipPath id="clip0_48_38">
<rect width="24" height="24" fill="white"/>
</clipPath>
</defs>
</svg>
