<svg width="24" height="24" viewBox="0 0 24 24" fill="none" xmlns="http://www.w3.org/2000/svg">
<g clip-path="url(#clip0_46_3)">
<path d="M12 24C18.6274 24 24 18.6274 24 12C24 5.37258 18.6274 0 12 0C5.37258 0 0 5.37258 0 12C0 18.6274 5.37258 24 12 24Z" fill="white"/>
<path d="M12 22C17.5228 22 22 17.5228 22 12C22 6.47715 17.5228 2 12 2C6.47715 2 2 6.47715 2 12C2 17.5228 6.47715 22 12 22Z" fill="#00950F"/>
<mask id="mask0_46_3" style="mask-type:alpha" maskUnits="userSpaceOnUse" x="4" y="4" width="17" height="17">
<rect x="4" y="4" width="17" height="17" fill="#D9D9D9"/>
</mask>
<g mask="url(#mask0_46_3)">
<path d="M16.1479 18.6625L12.0024 14.4828C11.9176 14.3972 11.7902 14.3717 11.6763 14.411C11.5009 14.4716 11.3239 14.5193 11.1453 14.5542C10.9033 14.6014 10.6465 14.625 10.375 14.625C9.19444 14.625 8.19097 14.2118 7.36458 13.3854C6.53819 12.559 6.125 11.5556 6.125 10.375C6.125 9.95 6.18403 9.54566 6.30208 9.16198C6.38302 8.89894 6.48615 8.64561 6.61147 8.40199C6.6999 8.23009 6.92874 8.20374 7.06543 8.34043L9.1712 10.4462C9.28836 10.5634 9.47831 10.5634 9.59547 10.4462L10.4462 9.59547C10.5634 9.47831 10.5634 9.28836 10.4462 9.1712L8.34043 7.06543C8.20374 6.92874 8.23009 6.6999 8.40199 6.61147C8.64561 6.48615 8.89894 6.38302 9.16198 6.30208C9.54566 6.18403 9.95 6.125 10.375 6.125C11.5556 6.125 12.559 6.53819 13.3854 7.36458C14.2118 8.19097 14.625 9.19444 14.625 10.375C14.625 10.6465 14.6014 10.9033 14.5542 11.1453C14.5193 11.3239 14.4716 11.5009 14.411 11.6763C14.3717 11.7902 14.3972 11.9176 14.4828 12.0024L18.6625 16.1479C18.8042 16.2896 18.875 16.4608 18.875 16.6615C18.875 16.8622 18.8042 17.0333 18.6625 17.175L17.175 18.6625C17.0333 18.8042 16.8622 18.875 16.6615 18.875C16.4608 18.875 16.2896 18.8042 16.1479 18.6625ZM16.4493 16.9452C16.5665 17.0623 16.7564 17.0623 16.8736 16.9452L16.9275 16.8913C17.0446 16.7741 17.0446 16.5842 16.9275 16.467L12.8075 12.3471C12.6947 12.2343 12.6921 12.054 12.7821 11.9223C12.9058 11.7411 13.0006 11.5411 13.0667 11.3224C13.1611 11.0095 13.2083 10.6937 13.2083 10.375C13.2083 9.66667 12.9811 9.04983 12.5266 8.52448C12.2846 8.24483 12.0117 8.02456 11.7079 7.86366C11.4511 7.72769 11.2823 8.02398 11.4878 8.22943L12.1458 8.8875C12.2875 9.02917 12.3583 9.19444 12.3583 9.38333C12.3583 9.57222 12.2875 9.7375 12.1458 9.87917L9.87917 12.1458C9.7375 12.2875 9.57222 12.3583 9.38333 12.3583C9.19444 12.3583 9.02917 12.2875 8.8875 12.1458L8.22943 11.4878C8.02398 11.2823 7.72769 11.4511 7.86366 11.7079C8.02456 12.0117 8.24483 12.2846 8.52448 12.5266C9.04983 12.9811 9.66667 13.2083 10.375 13.2083C10.6819 13.2083 10.9889 13.1611 11.2958 13.0667C11.5155 12.9991 11.72 12.9043 11.9095 12.7823C12.0385 12.6991 12.2105 12.7064 12.3191 12.8149L16.4493 16.9452Z" fill="white"/>
</g>
</g>
<defs>
<clipPath id="clip0_46_3">
<rect width="24" height="24" fill="white"/>
</clipPath>
</defs>
</svg>
