<svg width="24" height="24" viewBox="0 0 24 24" fill="none" xmlns="http://www.w3.org/2000/svg">
<g clip-path="url(#clip0_46_20)">
<path d="M12 24C18.6274 24 24 18.6274 24 12C24 5.37258 18.6274 0 12 0C5.37258 0 0 5.37258 0 12C0 18.6274 5.37258 24 12 24Z" fill="white"/>
<path d="M12 22C17.5228 22 22 17.5228 22 12C22 6.47715 17.5228 2 12 2C6.47715 2 2 6.47715 2 12C2 17.5228 6.47715 22 12 22Z" fill="#00AF12"/>
<mask id="mask0_46_20" style="mask-type:alpha" maskUnits="userSpaceOnUse" x="1" y="1" width="22" height="22">
<rect x="1" y="1" width="22" height="22" fill="#D9D9D9"/>
</mask>
<g mask="url(#mask0_46_20)">
<path d="M11.5 19.5C11.2239 19.5 11 19.2761 11 19V14V11V9.64886C11 9.19615 10.4464 8.9765 10.136 9.30607L6.50336 13.1634C6.31605 13.3623 6.00378 13.374 5.80209 13.1897L4.89431 12.3603C4.68087 12.1653 4.67683 11.8304 4.88549 11.6303L8.26562 8.38864L12.1471 4.82411C12.3444 4.64292 12.6494 4.64941 12.8388 4.83883L16 8L19.6226 11.6226C19.827 11.827 19.8161 12.1614 19.5989 12.352L18.6311 13.2013C18.4277 13.3798 18.1191 13.364 17.9349 13.1657L14.3664 9.32191C14.0572 8.98885 13.5 9.20764 13.5 9.66209V11.5V14V19C13.5 19.2761 13.2761 19.5 13 19.5L11.5 19.5Z" fill="white"/>
</g>
</g>
<defs>
<clipPath id="clip0_46_20">
<rect width="24" height="24" fill="white"/>
</clipPath>
</defs>
</svg>
