<svg width="24" height="24" viewBox="0 0 24 24" fill="none" xmlns="http://www.w3.org/2000/svg">
<g clip-path="url(#clip0_48_72)">
<path d="M12 24C18.6274 24 24 18.6274 24 12C24 5.37258 18.6274 0 12 0C5.37258 0 0 5.37258 0 12C0 18.6274 5.37258 24 12 24Z" fill="white"/>
<path d="M12 22C17.5228 22 22 17.5228 22 12C22 6.47715 17.5228 2 12 2C6.47715 2 2 6.47715 2 12C2 17.5228 6.47715 22 12 22Z" fill="#FF7A00"/>
<path d="M13.27 10.55H16.405L13.27 6.975V10.55ZM8.14 6H13.84L17.26 9.9V16.4C17.26 16.7448 17.1399 17.0754 16.9261 17.3192C16.7123 17.563 16.4223 17.7 16.12 17.7H8.14C7.5073 17.7 7 17.115 7 16.4V7.3C7 6.5785 7.5073 6 8.14 6ZM8.14 11.85V13.15H16.12V11.85H8.14ZM8.14 14.45V15.75H13.27V14.45H8.14Z" fill="white"/>
</g>
<defs>
<clipPath id="clip0_48_72">
<rect width="24" height="24" fill="white"/>
</clipPath>
</defs>
</svg>
