<svg width="20" height="16" viewBox="0 0 20 16" fill="none" xmlns="http://www.w3.org/2000/svg">
<mask id="mask0_77_8" style="mask-type:alpha" maskUnits="userSpaceOnUse" x="0" y="0" width="20" height="16">
<rect width="20" height="16" fill="#D9D9D9"/>
</mask>
<g mask="url(#mask0_77_8)">
<path d="M12 13H17V8H15V11H12V13ZM3 8H5V5H8V3H3V8ZM2 16C1.45 16 0.979164 15.8042 0.587498 15.4125C0.195831 15.0208 -2.28882e-06 14.55 -2.28882e-06 14V2C-2.28882e-06 1.45 0.195831 0.979167 0.587498 0.5875C0.979164 0.195833 1.45 0 2 0H18C18.55 0 19.0208 0.195833 19.4125 0.5875C19.8042 0.979167 20 1.45 20 2V14C20 14.55 19.8042 15.0208 19.4125 15.4125C19.0208 15.8042 18.55 16 18 16H2ZM2 14H18V2H2V14Z" fill="white"/>
</g>
</svg>
