<svg width="24" height="24" viewBox="0 0 24 24" fill="none" xmlns="http://www.w3.org/2000/svg">
<g clip-path="url(#clip0_50_132)">
<path d="M12 24C18.6274 24 24 18.6274 24 12C24 5.37258 18.6274 0 12 0C5.37258 0 0 5.37258 0 12C0 18.6274 5.37258 24 12 24Z" fill="white"/>
<path d="M12 22C17.5228 22 22 17.5228 22 12C22 6.47715 17.5228 2 12 2C6.47715 2 2 6.47715 2 12C2 17.5228 6.47715 22 12 22Z" fill="#FF7A00"/>
<mask id="mask0_50_132" style="mask-type:alpha" maskUnits="userSpaceOnUse" x="3" y="3" width="18" height="18">
<rect x="3" y="3" width="18" height="18" fill="#D9D9D9"/>
</mask>
<g mask="url(#mask0_50_132)">
<path d="M11.75 18C11.4739 18 11.25 17.7761 11.25 17.5V13.0946C11.25 12.6492 10.7114 12.4261 10.3964 12.7411L9.65981 13.4777C9.46212 13.6754 9.14075 13.6726 8.94656 13.4714L8.59126 13.1034C8.40183 12.9072 8.40456 12.5954 8.59741 12.4026L11.6464 9.35355C11.8417 9.15829 12.1583 9.15829 12.3536 9.35355L15.4026 12.4026C15.5954 12.5954 15.5982 12.9072 15.4087 13.1034L15.0534 13.4714C14.8593 13.6726 14.5379 13.6754 14.3402 13.4777L13.6036 12.7411C13.2886 12.4261 12.75 12.6492 12.75 13.0946V17.5C12.75 17.7761 12.5261 18 12.25 18H11.75ZM6.5 9.75C6.22386 9.75 6 9.52614 6 9.25V7.5C6 7.0875 6.14688 6.73438 6.44063 6.44063C6.73438 6.14688 7.0875 6 7.5 6H16.5C16.9125 6 17.2656 6.14688 17.5594 6.44063C17.8531 6.73438 18 7.0875 18 7.5V9.25C18 9.52614 17.7761 9.75 17.5 9.75H17C16.7239 9.75 16.5 9.52614 16.5 9.25V8C16.5 7.72386 16.2761 7.5 16 7.5H8C7.72386 7.5 7.5 7.72386 7.5 8V9.25C7.5 9.52614 7.27614 9.75 7 9.75H6.5Z" fill="white"/>
</g>
</g>
<defs>
<clipPath id="clip0_50_132">
<rect width="24" height="24" fill="white"/>
</clipPath>
</defs>
</svg>
