<svg width="24" height="24" viewBox="0 0 24 24" fill="none" xmlns="http://www.w3.org/2000/svg">
<g clip-path="url(#clip0_51_154)">
<path d="M12 24C18.6274 24 24 18.6274 24 12C24 5.37258 18.6274 0 12 0C5.37258 0 0 5.37258 0 12C0 18.6274 5.37258 24 12 24Z" fill="white"/>
<path d="M12 22C17.5228 22 22 17.5228 22 12C22 6.47715 17.5228 2 12 2C6.47715 2 2 6.47715 2 12C2 17.5228 6.47715 22 12 22Z" fill="#FF7A00"/>
<mask id="mask0_51_154" style="mask-type:alpha" maskUnits="userSpaceOnUse" x="3" y="3" width="18" height="18">
<rect x="3" y="3" width="18" height="18" fill="#D9D9D9"/>
</mask>
<g mask="url(#mask0_51_154)">
<path d="M12 19.5C10.675 19.5 9.59375 19.2906 8.75625 18.8719C7.91875 18.4531 7.5 17.9125 7.5 17.25C7.5 16.8125 7.68125 16.4313 8.04375 16.1063C8.26272 15.9099 8.53187 15.7387 8.85119 15.5925C9.22295 15.4224 9.63926 15.6531 9.75769 16.0444L9.79314 16.1616C9.89335 16.4927 9.69869 16.8335 9.39375 16.9969V16.9969V16.9969C9.16878 17.1174 9.16154 17.3928 9.38991 17.5068C9.58403 17.6037 9.84155 17.6931 10.1625 17.775C10.75 17.925 11.3625 18 12 18C12.6375 18 13.2531 17.925 13.8469 17.775C14.172 17.6929 14.4325 17.6032 14.6284 17.5061C14.857 17.3927 14.85 17.1174 14.625 16.9969V16.9969V16.9969C14.3201 16.8335 14.1254 16.4927 14.2256 16.1616L14.2611 16.0444C14.3795 15.6531 14.7959 15.4222 15.1673 15.5931C15.4846 15.7391 15.7507 15.9102 15.9656 16.1063C16.3219 16.4313 16.5 16.8125 16.5 17.25C16.5 17.9125 16.0812 18.4531 15.2437 18.8719C14.4062 19.2906 13.325 19.5 12 19.5ZM11.2875 13.3594C11.6279 13.8274 12.3721 13.8274 12.7125 13.3594V13.3594C12.9625 13.0156 13.2063 12.6875 13.4438 12.375C13.9063 11.775 14.275 11.2344 14.55 10.7531C14.825 10.2719 14.9625 9.675 14.9625 8.9625C14.9625 8.1375 14.675 7.4375 14.1 6.8625C13.525 6.2875 12.825 6 12 6C11.175 6 10.475 6.2875 9.9 6.8625C9.325 7.4375 9.0375 8.1375 9.0375 8.9625C9.0375 9.675 9.175 10.2719 9.45 10.7531C9.725 11.2344 10.0938 11.775 10.5563 12.375C10.7938 12.6875 11.0375 13.0156 11.2875 13.3594V13.3594ZM12 17.25C11.8625 17.25 11.7375 17.2094 11.625 17.1281C11.5125 17.0469 11.4313 16.9375 11.3813 16.8C11.0938 15.9125 10.7313 15.1688 10.2938 14.5688C9.85625 13.9688 9.43125 13.3938 9.01875 12.8438C8.61875 12.2937 8.27188 11.725 7.97812 11.1375C7.68437 10.55 7.5375 9.825 7.5375 8.9625C7.5375 7.7125 7.96875 6.65625 8.83125 5.79375C9.69375 4.93125 10.75 4.5 12 4.5C13.25 4.5 14.3063 4.93125 15.1688 5.79375C16.0313 6.65625 16.4625 7.7125 16.4625 8.9625C16.4625 9.825 16.3187 10.55 16.0312 11.1375C15.7438 11.725 15.3938 12.2937 14.9813 12.8438C14.5813 13.3938 14.1594 13.9688 13.7156 14.5688C13.2719 15.1688 12.9063 15.9125 12.6188 16.8C12.5688 16.9375 12.4875 17.0469 12.375 17.1281C12.2625 17.2094 12.1375 17.25 12 17.25ZM12 10.5562C12.4375 10.5562 12.8125 10.4 13.125 10.0875C13.4375 9.775 13.5938 9.4 13.5938 8.9625C13.5938 8.525 13.4375 8.15 13.125 7.8375C12.8125 7.525 12.4375 7.36875 12 7.36875C11.5625 7.36875 11.1875 7.525 10.875 7.8375C10.5625 8.15 10.4062 8.525 10.4062 8.9625C10.4062 9.4 10.5625 9.775 10.875 10.0875C11.1875 10.4 11.5625 10.5562 12 10.5562Z" fill="white"/>
</g>
</g>
<defs>
<clipPath id="clip0_51_154">
<rect width="24" height="24" fill="white"/>
</clipPath>
</defs>
</svg>
