<svg width="24" height="24" viewBox="0 0 24 24" fill="none" xmlns="http://www.w3.org/2000/svg">
<g clip-path="url(#clip0_48_46)">
<path d="M12 24C18.6274 24 24 18.6274 24 12C24 5.37258 18.6274 0 12 0C5.37258 0 0 5.37258 0 12C0 18.6274 5.37258 24 12 24Z" fill="white"/>
<path d="M12 22C17.5228 22 22 17.5228 22 12C22 6.47715 17.5228 2 12 2C6.47715 2 2 6.47715 2 12C2 17.5228 6.47715 22 12 22Z" fill="#D32F2F"/>
<path d="M16.375 16.375H8.125C7.84886 16.375 7.625 16.1511 7.625 15.875V10C7.625 9.72386 7.84886 9.5 8.125 9.5H16.375M14.5 5.125V5.875C14.5 6.15114 14.2761 6.375 14 6.375H10C9.72386 6.375 9.5 6.15114 9.5 5.875V5.625C9.5 5.34886 9.27614 5.125 9 5.125H8.75C8.47386 5.125 8.25 5.34886 8.25 5.625V5.875C8.25 6.15114 8.02614 6.375 7.75 6.375H7.625C6.93125 6.375 6.375 6.93125 6.375 7.625V16.375C6.375 16.7065 6.5067 17.0245 6.74112 17.2589C6.97554 17.4933 7.29348 17.625 7.625 17.625H16.375C16.7065 17.625 17.0245 17.4933 17.2589 17.2589C17.4933 17.0245 17.625 16.7065 17.625 16.375V7.625C17.625 6.93125 17.0625 6.375 16.375 6.375H16.25C15.9739 6.375 15.75 6.15114 15.75 5.875V5.125M15.125 12.5C15.125 12.2239 14.9011 12 14.625 12H12.5C12.2239 12 12 12.2239 12 12.5V14.625C12 14.9011 12.2239 15.125 12.5 15.125H14.625C14.9011 15.125 15.125 14.9011 15.125 14.625V12.5Z" fill="white"/>
</g>
<defs>
<clipPath id="clip0_48_46">
<rect width="24" height="24" fill="white"/>
</clipPath>
</defs>
</svg>
